<?xml version="1.0" encoding="UTF-8" standalone="no"?>
<!DOCTYPE svg PUBLIC "-//W3C//DTD SVG 1.1//EN" "http://www.w3.org/Graphics/SVG/1.1/DTD/svg11.dtd">
<svg width="100%" height="100%" viewBox="0 0 800 600" version="1.1" xmlns="http://www.w3.org/2000/svg" xmlns:xlink="http://www.w3.org/1999/xlink" xml:space="preserve" xmlns:serif="http://www.serif.com/" style="fill-rule:evenodd;clip-rule:evenodd;stroke-linejoin:round;stroke-miterlimit:2;">
    <g id="Bigger-size" serif:id="Bigger size">
        <g transform="matrix(-1.42904,0,0,1.2743,980.312,97.7542)">
            <path d="M280.79,379.423L531.381,379.423L406.085,158.009L280.79,379.423ZM526.077,376.154L286.093,376.154L406.085,164.111L526.077,376.154Z"/>
        </g>
        <g transform="matrix(-1.15475,0,0,1.02971,868.926,172.964)">
            <path d="M406.085,158.009L531.381,379.423L280.79,379.423L406.085,158.009Z"/>
        </g>
        <g transform="matrix(1.34042,0,0,1.29595,49.678,-272.884)">
            <ellipse cx="380.384" cy="247.589" rx="5.343" ry="5.527"/>
        </g>
        <g transform="matrix(1.34042,0,0,1.29595,27.0478,-236.498)">
            <ellipse cx="380.384" cy="247.589" rx="5.343" ry="5.527"/>
        </g>
        <g transform="matrix(1.34042,0,0,1.29595,4.1513,-200.171)">
            <ellipse cx="380.384" cy="247.589" rx="5.343" ry="5.527"/>
        </g>
        <g transform="matrix(1.34042,0,0,1.29595,-19.5631,-163.736)">
            <ellipse cx="380.384" cy="247.589" rx="5.343" ry="5.527"/>
        </g>
        <g transform="matrix(1.34042,0,0,1.29595,-41.5623,-127.472)">
            <ellipse cx="380.384" cy="247.589" rx="5.343" ry="5.527"/>
        </g>
        <g transform="matrix(1.34042,0,0,1.29595,-64.8355,-91.1439)">
            <ellipse cx="380.384" cy="247.589" rx="5.343" ry="5.527"/>
        </g>
        <g transform="matrix(1.34042,0,0,1.29595,-88.2741,-54.8801)">
            <ellipse cx="380.384" cy="247.589" rx="5.343" ry="5.527"/>
        </g>
        <g transform="matrix(1.34042,0,0,1.29595,-131.175,-54.8801)">
            <ellipse cx="380.384" cy="247.589" rx="5.343" ry="5.527"/>
        </g>
        <g transform="matrix(1.34042,0,0,1.29595,-153.026,-91.1439)">
            <ellipse cx="380.384" cy="247.589" rx="5.343" ry="5.527"/>
        </g>
        <g transform="matrix(1.34042,0,0,1.29595,-177.486,-127.472)">
            <ellipse cx="380.384" cy="247.589" rx="5.343" ry="5.527"/>
        </g>
        <g transform="matrix(1.34042,0,0,1.29595,-199.878,-163.736)">
            <ellipse cx="380.384" cy="247.589" rx="5.343" ry="5.527"/>
        </g>
        <g transform="matrix(1.34042,0,0,1.29595,-222.849,-200.171)">
            <ellipse cx="380.384" cy="247.589" rx="5.343" ry="5.527"/>
        </g>
        <g transform="matrix(1.34042,0,0,1.29595,-245.904,-236.498)">
            <ellipse cx="380.384" cy="247.589" rx="5.343" ry="5.527"/>
        </g>
        <g transform="matrix(1.34042,0,0,1.29595,-270.142,-272.884)">
            <ellipse cx="380.384" cy="247.589" rx="5.343" ry="5.527"/>
        </g>
        <g transform="matrix(1.79052,0,0,1.79052,-305.631,-760.477)">
            <rect x="294.092" y="431.659" width="200" height="3.535"/>
        </g>
        <g transform="matrix(1.79052,0,0,1.79052,-305.631,-191.64)">
            <rect x="294.092" y="431.659" width="200" height="3.535"/>
        </g>
        <g transform="matrix(1.61254,0,0,1.00362,-235.489,-387.018)">
            <rect x="294.092" y="431.659" width="200" height="3.535"/>
        </g>
        <g transform="matrix(1.36476,0,0,1.00362,-137.393,-350.631)">
            <rect x="294.092" y="431.659" width="200" height="3.535"/>
        </g>
        <g transform="matrix(1.135,0,0,1.00362,-46.7679,-314.305)">
            <rect x="294.092" y="431.659" width="200" height="3.535"/>
        </g>
        <g transform="matrix(0.901573,0,0,1.00362,44.8526,-277.869)">
            <rect x="294.092" y="431.659" width="200" height="3.535"/>
        </g>
        <g transform="matrix(0.67962,0,0,1.00362,132.519,-241.605)">
            <rect x="294.092" y="431.659" width="200" height="3.535"/>
        </g>
        <g transform="matrix(0.440953,0,0,1.00362,227.169,-205.278)">
            <rect x="294.092" y="431.659" width="200" height="3.535"/>
        </g>
        <g transform="matrix(0.214503,0,0,1.00362,315.618,-169.014)">
            <rect x="294.092" y="431.659" width="200" height="3.535"/>
        </g>
    </g>
</svg>
